# xmcd
#
# Track frame offsets: 
#        182
#        13357
#        29332
#        43877
#        60282
#        75382
#        88810
#        105557
#        118807
#        134737
#        150845
#        164032
#        178932
#        198470
#
# Disc length: 2950 seconds
#
# Revision: 4
# Processed by: cddbd v1.5.2PL0 Copyright (c) Steve Scherf et al.
# Submitted via: ExactAudioCopy v1.3
#
DISCID=bf0b820e,bf0b840e
DTITLE=Truck Stop - 25 Jahre Truck Stop On Tour 
DYEAR=1998
DGENRE=Country
TTITLE0=Uns're Herzen (schlagen für den wilden Westen)
TTITLE1=California
TTITLE2=Pack dein Herz in einen Koffer
TTITLE3=Freunde findest du tief unten
TTITLE4=Echte Kerle
TTITLE5=Der wilde, wilde Westen (Neuaufnahme 1998)
TTITLE6=Alabama Moon
TTITLE7=Take It Easy, altes Haus
TTITLE8=Gegen den Wind
TTITLE9=Ich möcht' so gern Dave Dudley hör'n (Neuaufnahme 1998)
TTITLE10=Tief im Herzen (immer Cowboy)
TTITLE11=Emmylou, Emmylou
TTITLE12=Wohin der Wind dich treibt
TTITLE13=Super Hit-Medley
EXTD=
EXTT0=
EXTT1=
EXTT2=
EXTT3=
EXTT4=
EXTT5=
EXTT6=
EXTT7=
EXTT8=
EXTT9=
EXTT10=
EXTT11=
EXTT12=
EXTT13=
PLAYORDER=
